<!DOCTYPE svg PUBLIC "-//W3C//DTD SVG 1.1//EN" "http://www.w3.org/Graphics/SVG/1.1/DTD/svg11.dtd">
<!-- Uploaded to: SVG Repo, www.svgrepo.com, Transformed by: SVG Repo Mixer Tools -->
<svg fill="#ffffff" height="75px" width="75px" version="1.1" id="Layer_1" xmlns="http://www.w3.org/2000/svg" xmlns:xlink="http://www.w3.org/1999/xlink" viewBox="0 0 511.787 511.787" xml:space="preserve" stroke="#ffffff">
<g id="SVGRepo_bgCarrier" stroke-width="0"/>
<g id="SVGRepo_tracerCarrier" stroke-linecap="round" stroke-linejoin="round"/>
<g id="SVGRepo_iconCarrier"> <g transform="translate(0 1)"> <g> <g> <path d="M452.163,263.32V118.253c0-5.12-3.413-8.533-8.533-8.533c-37.547,0-68.267-30.72-68.267-68.267 c0-14.507-17.92-24.747-34.987-29.013c-62.293-17.92-107.52-17.92-168.96,0c-17.067,4.267-34.987,14.507-34.987,29.013 c0,37.547-30.72,68.267-68.267,68.267c-5.12,0-8.533,3.413-8.533,8.533V263.32c0,5.12-4.267,134.827,192,246.613 c1.707,0.853,2.56,0.853,4.267,0.853s2.56,0,4.267-0.853C454.723,399.853,452.163,271.853,452.163,263.32z M255.896,492.013 c-182.613-104.96-179.2-226.987-179.2-228.693V126.787c42.667-5.12,76.8-40.96,76.8-85.333c0-1.707,6.827-8.533,23.04-12.8 c58.027-17.067,99.84-17.067,159.573,0c15.36,4.267,22.187,11.093,22.187,12.8c0,44.373,34.133,81.067,76.8,85.333V263.32 C435.096,265.027,438.51,387.053,255.896,492.013z"/> <path d="M404.376,144.707c-36.693-13.653-63.147-46.933-69.973-85.333c0-3.413-2.56-5.973-5.973-6.827 c-28.16-7.68-50.347-11.093-72.533-11.093s-44.373,3.413-72.533,11.947c-3.413,0.853-5.12,3.413-5.973,6.827 c-6.827,38.4-33.28,71.68-69.973,85.333c-2.56,0.853-5.12,4.267-5.12,7.68v110.08v0.853c0,4.267,0.853,102.4,149.333,195.413 c0.853,0.853,2.56,1.707,4.267,1.707s3.413-0.853,4.267-2.56c148.48-92.16,149.333-190.293,149.333-194.56V152.387 C409.496,148.973,407.79,145.56,404.376,144.707z M392.43,265.027v0.853c0,3.413-0.853,89.6-136.533,176.64 c-135.68-87.04-136.533-174.08-136.533-177.493v-1.707V158.36c37.547-16.213,65.707-50.347,74.24-89.6 c46.933-12.8,76.8-12.8,124.587,0c8.533,40.107,36.693,74.24,74.24,90.453V265.027z"/> <path d="M342.936,198.467c-0.853,0-25.6,19.627-61.44,22.187c2.56-36.693,22.187-61.44,22.187-61.44 c2.56-2.56,2.56-5.973,0.853-9.387c-1.707-3.413-5.12-5.12-8.533-4.267l-17.92,3.413l-15.36-18.773 c-3.413-4.267-10.24-4.267-13.653,0l-15.36,18.773l-17.92-3.413c-3.413,0-6.827,0.853-8.533,4.267 c-1.707,2.56-1.707,6.827,0.853,9.387c0,0.853,19.627,25.6,22.187,61.44c-36.693-2.56-61.44-22.187-61.44-22.187 c-2.56-2.56-5.973-2.56-9.387-0.853c-3.413,1.707-5.12,5.12-4.267,8.533l3.413,17.92l-18.773,15.36 c-2.56,1.707-3.413,4.267-3.413,6.827s0.853,5.12,3.413,6.827l18.773,15.36l-3.413,17.92c0,3.413,0.853,6.827,4.267,8.533 c2.56,1.707,6.827,1.707,9.387-0.853c0.853,0,25.6-19.627,61.44-22.187c-2.56,36.693-22.187,61.44-22.187,61.44 c-2.56,2.56-2.56,5.973-0.853,9.387c1.707,3.413,5.12,5.12,8.533,4.267l17.92-3.413l15.36,18.773 c1.707,2.56,4.267,3.413,6.827,3.413s5.12-0.853,6.827-3.413l15.36-18.773l17.92,3.413c3.413,0,6.827-0.853,8.533-4.267 c1.707-2.56,1.707-6.827-0.853-9.387c0-0.853-19.627-25.6-22.187-61.44c36.693,2.56,61.44,22.187,61.44,22.187 c2.56,2.56,5.973,2.56,9.387,0.853s5.12-5.12,4.267-8.533l-3.413-17.92l18.773-15.36c2.56-1.707,3.413-4.267,3.413-6.827 s-1.707-5.12-3.413-6.827l-18.773-15.36l3.413-17.92c0-3.413-0.853-6.827-4.267-8.533 C349.763,195.907,345.496,195.907,342.936,198.467z M353.176,245.4l-14.507,11.947c-2.56,2.56-4.267,5.12-3.413,8.533 l0.853,4.267c-14.507-6.827-36.693-15.36-63.147-15.36c-5.12,0-8.533,3.413-8.533,8.533c0,26.453,8.533,48.64,16.213,63.147 l-4.267-0.853c-3.413,0-6.827,0.853-8.533,3.413l-11.947,14.507l-11.947-14.507c-1.707-2.56-4.267-3.413-6.827-3.413 c0,0-0.853,0-0.853,0l-4.267,0.853c6.827-14.507,15.36-36.693,15.36-63.147c0-5.12-3.413-8.533-8.533-8.533 c-26.453,0-48.64,8.533-63.147,16.213l0.853-4.267c0-3.413-0.853-6.827-3.413-8.533l-14.507-11.947l14.507-11.093 c2.56-2.56,4.267-5.12,3.413-8.533l-0.853-4.267c14.507,6.827,36.693,15.36,63.147,15.36c5.12,0,8.533-3.413,8.533-8.533 c0-26.453-8.533-48.64-16.213-63.147l4.267,0.853c3.413,0,6.827-0.853,8.533-3.413l11.947-14.507l11.093,14.507 c2.56,2.56,5.12,4.267,8.533,3.413l4.267-0.853c-6.827,14.507-15.36,36.693-15.36,63.147c0,5.12,3.413,8.533,8.533,8.533 c26.453,0,48.64-8.533,63.147-17.067l-0.853,4.267c0,3.413,0.853,6.827,3.413,8.533L353.176,245.4z"/> </g> </g> </g> </g>
</svg>