<svg version="1.1" id="Layer_1" xmlns="http://www.w3.org/2000/svg" xmlns:xlink="http://www.w3.org/1999/xlink" viewBox="0 0 512.00 512.00" xml:space="preserve" width="256px" height="256px" fill="#000000"><g id="SVGRepo_bgCarrier" stroke-width="0" transform="translate(0,0), scale(1)"></g><g id="SVGRepo_tracerCarrier" stroke-linecap="round" stroke-linejoin="round"></g><g id="SVGRepo_iconCarrier"> <g> <polygon style="fill:#FFDD77;" points="208.382,42.246 169.481,96.768 103.318,140.343 37.156,96.768 76.057,42.246 "></polygon> <polygon style="fill:#FFDD77;" points="247.285,99.368 247.285,330.12 149.434,330.12 149.434,74.981 "></polygon> </g> <rect x="40.826" y="99.372" style="fill:#F9F0B5;" width="130.015" height="230.749"></rect> <polygon style="fill:#FEAB75;" points="471.835,302.93 471.835,357.398 302.08,357.398 302.08,302.93 386.958,281.143 471.835,280.811 "></polygon> <path style="fill:#FEBB8E;" d="M471.835,291.372v11.558H302.08v-11.558c0-17.974,14.706-32.681,32.681-32.681h104.394 C457.129,258.691,471.835,273.398,471.835,291.372z"></path> <rect x="149.439" y="302.93" style="fill:#FFCC3D;" width="97.846" height="52.322"></rect> <rect x="79.73" y="9.565" style="fill:#F9F0B5;" width="131.628" height="32.681"></rect> <polygon style="fill:#FFBB02;" points="210.561,43.335 249.462,97.858 171.659,97.858 "></polygon> <rect x="40.826" y="302.93" style="fill:#FFDD77;" width="130.015" height="52.322"></rect> <path style="fill:#FF7A2F;" d="M312.211,302.93l-100.189,81.778l-60.318-11.863c0,0,26.515-32.485,57.072-69.915l51.717-21.787 L312.211,302.93z"></path> <path style="fill:#FF9B5F;" d="M368.607,212.11c12.31,12.299,12.31,32.256,0,44.566c-0.763,0.763-1.558,1.482-2.375,2.157 l-54.021,44.097H208.776c41.559-50.906,90.58-110.962,90.591-110.962c0.665-0.828,1.383-1.623,2.146-2.386 c12.31-12.31,32.267-12.31,44.577,0L368.607,212.11z"></path> <path style="fill:#F06B22;" d="M355.786,302.93l-100.189,81.778l-60.318-11.863c0,0,26.515-32.485,57.072-69.915l53.76-21.787 L355.786,302.93z"></path> <path style="fill:#FF7A2F;" d="M412.182,212.11c12.31,12.299,12.31,32.256,0,44.566c-0.763,0.763-1.558,1.482-2.375,2.157 l-54.021,44.097H252.351c41.559-50.906,90.58-110.962,90.591-110.962c0.664-0.828,1.383-1.623,2.146-2.386 c12.31-12.31,32.267-12.31,44.577,0L412.182,212.11z"></path> <polygon style="fill:#BF7447;" points="503.426,379.185 503.426,502.436 7.765,502.436 7.765,379.185 255.595,346.505 "></polygon> <rect x="7.765" y="335.611" style="fill:#A0613C;" width="495.66" height="43.574"></rect> <g> <path style="fill:#1D2328;" d="M503.83,294.76c-4.512,0-8.17,3.658-8.17,8.17v24.511H16.34V302.93c0-4.512-3.658-8.17-8.17-8.17 S0,298.418,0,302.93v199.502c0,4.512,3.658,8.17,8.17,8.17h495.66c4.512,0,8.17-3.658,8.17-8.17V302.93 C512,298.418,508.342,294.76,503.83,294.76z M16.34,494.262V386.266h24.511c4.512,0,8.17-3.658,8.17-8.17 c0-4.512-3.658-8.17-8.17-8.17H16.34v-26.145H495.66v26.145H73.532c-4.512,0-8.17,3.658-8.17,8.17c0,4.512,3.658,8.17,8.17,8.17 H495.66v107.996L16.34,494.262L16.34,494.262z"></path> <path style="fill:#1D2328;" d="M206.194,309.26c1.517,1.239,3.344,1.841,5.161,1.841c2.369,0,4.719-1.025,6.334-3.003 l90.585-110.968c2.853-3.495,2.333-8.642-1.162-11.496c-3.495-2.853-8.642-2.333-11.496,1.162l-90.585,110.968 C202.179,301.259,202.699,306.406,206.194,309.26z"></path> <path style="fill:#1D2328;" d="M246.428,297.764c-3.909,8.755,5.079,15.564,12.658,10.333c0,0,89.314-109.412,90.568-110.948 c0.004-0.007,0.01-0.012,0.015-0.019c0.503-0.617,1.044-1.214,1.604-1.775c9.102-9.101,23.912-9.101,33.013,0l22.527,22.527 c9.102,9.102,9.102,23.911,0,33.014c-0.561,0.561-1.158,1.1-1.772,1.602l-53.834,43.946c-3.113,2.542-4.148,6.994-2.155,10.484 c1.566,2.742,4.337,4.172,7.135,4.172c1.817,0,3.645-0.602,5.161-1.841l54.027-44.103c1.039-0.849,2.046-1.759,2.992-2.706 c13.437-13.437,15.198-34.189,5.298-49.551c22.055-19.601,50.138-30.349,79.882-30.417c4.153-0.01,7.866-2.986,8.386-7.106 c0.63-4.987-3.241-9.235-8.103-9.235c-33.064,0-64.341,11.621-89.173,32.924l68.892-68.892c3.191-3.191,3.191-8.363,0-11.554 c-3.191-3.191-8.364-3.191-11.554,0l-68.887,68.887c21.238-24.76,32.852-55.926,32.918-88.881c0.008-3.898-2.586-7.47-6.401-8.269 c-5.284-1.108-9.939,2.894-9.939,7.984c0,29.847-10.754,58.039-30.417,80.165c-15.362-9.901-36.113-8.14-49.551,5.296 c-0.947,0.947-1.857,1.953-2.706,2.992l0.02,0.016c-0.365,0.407-0.706,0.825-1.038,1.231L246.428,297.764z"></path> <path style="fill:#1D2328;" d="M40.826,311.1c4.512,0,8.17-3.658,8.17-8.17V104.943h115.984V302.93c0,4.512,3.658,8.17,8.17,8.17 s8.17-3.658,8.17-8.17V99.388l30.733-43.073l23.038,32.287h-21.795c-4.512,0-8.17,3.658-8.17,8.17c0,4.512,3.658,8.17,8.17,8.17 h29.49v97.802c0,4.512,3.658,8.17,8.17,8.17s8.17-3.658,8.17-8.17V96.773c0-0.388-0.036-0.767-0.089-1.142 c-0.011-0.077-0.022-0.155-0.035-0.232c-0.064-0.379-0.149-0.752-0.264-1.112c-0.002-0.008-0.007-0.016-0.009-0.024 c-0.117-0.363-0.264-0.711-0.428-1.049c-0.026-0.053-0.05-0.108-0.077-0.161c-0.173-0.337-0.367-0.66-0.583-0.968 c-0.013-0.019-0.022-0.039-0.035-0.058l-37.384-52.394V9.568c0-4.512-3.658-8.17-8.17-8.17H79.729c-4.512,0-8.17,3.658-8.17,8.17 v30.064L34.174,92.028c-0.014,0.02-0.023,0.041-0.037,0.061c-0.215,0.306-0.407,0.627-0.58,0.963 c-0.028,0.054-0.052,0.11-0.08,0.166c-0.163,0.338-0.309,0.684-0.426,1.046c-0.003,0.009-0.007,0.017-0.01,0.026 c-0.114,0.359-0.199,0.732-0.264,1.111c-0.013,0.077-0.024,0.155-0.035,0.232c-0.052,0.374-0.089,0.753-0.089,1.142V302.93 C32.656,307.442,36.313,311.1,40.826,311.1z M168.943,88.603H56.691l27.244-38.183h112.251L168.943,88.603z M203.884,17.739v16.34 H87.9v-16.34H203.884z"></path> <path style="fill:#1D2328;" d="M471.149,311.101c4.512,0,8.17-3.658,8.17-8.17v-13.576c0-16.99-10.738-32.389-26.72-38.319 c-4.232-1.569-8.933,0.587-10.503,4.817c-1.57,4.231,0.587,8.933,4.817,10.503c9.608,3.565,16.065,12.808,16.065,23v13.576 C462.979,307.443,466.637,311.101,471.149,311.101z"></path> </g> </g></svg>